<svg xmlns="http://www.w3.org/2000/svg" enable-background="white" viewBox="0 0 24 24"><path d="M23.906,5.066c-0.215-0.207-0.36,0.059-0.751,0.266c0.258-0.243,1.132-1.196,0.722-1.438c-0.344-0.207-0.305,0.378-1.32,0.781c0.979-1.013,1.14-1.886,1.147-1.93c0.02-0.114-0.041-0.226-0.146-0.272c-0.106-0.045-0.23-0.014-0.299,0.079c-0.451,0.597-0.981,1.019-1.466,1.312c0.54-0.759,0.674-1.56,0.683-1.611c0.02-0.122-0.054-0.24-0.172-0.277c-0.121-0.036-0.246,0.018-0.3,0.129c-0.284,0.586-1,1.103-1.592,1.452c0.156-0.396,0.187-0.744,0.188-0.77c0.009-0.108-0.054-0.21-0.154-0.251c-0.104-0.043-0.217-0.012-0.287,0.072c-0.871,1.05-2.588,1.805-4.919,2.756c-2.569,1.049-3.121,3.58-3.145,3.692c-0.528,2.835-1.89,2.998-1.892,3.009c-0.288-0.122-1.341-1.681-1.542-2.284C8.45,9.138,6.767,6.737,5.227,6.044C3.883,5.44,3.259,4.388,3.252,4.377C3.214,4.311,3.146,4.266,3.07,4.255C2.989,4.247,2.916,4.271,2.861,4.324c-0.063,0.062-0.1,0.146-0.119,0.236C1.444,3.535,2.246,1.727,1.854,1.531c-0.1-0.05-0.221-0.029-0.295,0.053L1.094,2.083c-0.386-0.315-0.65,0.505-0.69,1.032C0.252,3.059,0.094,3.157,0.071,3.313c-0.186,1.25,0.025,2.046,0.307,2.552C0.065,5.813-0.149,6.297,0.892,7.08C0.734,7.12,0.703,7.327,0.748,7.449c0.073,0.195,0.442,0.403,0.841,0.65C1.506,8.138,1.45,8.219,1.444,8.312C1.438,8.418,1.502,8.518,1.601,8.558c0.101,0.059,4.798,1.751,5.295,3.452c0.079,0.271-0.004,0.422-0.021,0.45c-0.468,0.753-2.097,0.179-1.938,1.788c-0.248,0.191-0.339,0.53-0.236,0.932c0.178,0.718,0.711,0.61,0.711,0.178c0-0.196,0.179-0.249,0.231-0.259l-0.001-0.002C6.154,15.196,7.159,15.003,7.173,15c0.293-0.066,0.51-0.037,0.664,0.088c0.338,0.274,0.329,0.983,0.325,1.278c-0.006,0.281-0.592,1.204-0.76,1.485c-0.127,0.088-0.217,0.226-0.221,0.392c-0.003,0.131-0.019,0.315-0.044,0.477c-0.003-0.001-0.006-0.002-0.009-0.003c-0.926-0.321-2.572-0.427-2.276,0.486c0.259,0.793,1.257-0.153,1.448,0.471c0.129,0.418-0.648,0.698-0.146,1.18c0.504,0.486,1.15-0.324,1.151-1.072c0.481,0.047,0.659-0.196,0.772-0.664c0.458,0.605,0.135,0.413,0.331,0.873c-0.092,0.122-0.164,0.502-0.219,0.542c-1.43,0.533-1.353,1.489-0.821,1.653c0.049,0.015,0.099,0.022,0.147,0.022c0.214,0,0.411-0.138,0.478-0.352c0.06-0.194,0.137-0.233,0.425-0.341c0.266,0.168,0.427,0.258,0.578,0.66c0.075,0.2,0.266,0.324,0.468,0.324c0.059,0,0.118-0.01,0.176-0.032c0.259-0.097,0.39-0.385,0.292-0.644c-0.207-0.549-0.499-0.825-0.762-1.009c0.063-0.148,0.148-0.402,0.121-0.601c0.05-0.036,0.093-0.077,0.127-0.121c0.051-0.066,0.419-0.22,0.571-0.3c0.055,0.191,0.223,0.249,0.361,0.182c0.053,0.301,0.358,0.32,0.688,0.289c0.317,0.766,0.464,0.605,0.764,0.598c0.523,0.745,0.759,0.072,1.255,0.553c0.193,0.19,0.362-0.047,0.592-0.069c0.23,0.238,0.775,0.167,1.007-0.054c0.101,0.043,0.221,0.162,0.381,0.058c0.04-0.026,0.227-0.151,0.352-0.284c0.054,0.011,0.141,0.042,0.207,0.076c0.109,0.055,0.243,0.023,0.314-0.075l0.297-0.404h0.311c0.059,0,0.115-0.021,0.16-0.058c0.188-0.156,0.221-0.336,0.215-0.46c-0.022-0.476-0.662-1-1.836-1.803c-0.919-0.628-1.533-1.99-1.776-2.612c2.18-0.129,3.119-2.156,3.957-4.409c0.594-1.599,1.297-0.96,3.197-1.62c0.209-0.073,0.226-0.36,0.031-0.459c0.419-0.107,1.032-0.333,0.769-0.672c0.268-0.151,0.599-0.386,0.443-0.633c0.997-0.4,1.814-1.393,1.117-1.393c0.656-0.516,1.106-1.106,1.138-1.148C24.01,5.296,23.998,5.153,23.906,5.066z"/></svg>