<svg id="SvgjsSvg1001" width="288" height="288" xmlns="http://www.w3.org/2000/svg" version="1.1" xmlns:xlink="http://www.w3.org/1999/xlink" xmlns:svgjs="http://svgjs.com/svgjs"><defs id="SvgjsDefs1002"></defs><g id="SvgjsG1008"><svg xmlns="http://www.w3.org/2000/svg" enable-background="new 0 0 24 24" viewBox="0 0 24 24" width="288" height="288"><path d="M13.976,22.504c-0.166,0-0.321-0.031-0.458-0.09c-0.286,0.146-0.636,0.091-0.867-0.138c-0.011-0.011-0.027-0.024-0.043-0.037c-0.015,0.001-0.029,0.003-0.042,0.005c-0.143,0.016-0.34,0.038-0.557-0.047c-0.106-0.042-0.265-0.147-0.412-0.29c-0.261,0.011-0.502-0.101-0.652-0.31c-0.025-0.035-0.1-0.142-0.182-0.29c-0.337-0.025-0.51-0.146-0.627-0.264c-0.008-0.008-0.015-0.016-0.023-0.024c-0.054-0.015-0.107-0.037-0.156-0.063c-0.024,0.012-0.047,0.023-0.068,0.036c-0.29,0.329-0.774,0.467-1.182,0.331c-0.169-0.057-0.723-0.307-0.723-1.138c-0.034-0.093-0.323-0.427-0.461-0.588c-0.293-0.34-0.84-0.972-0.275-1.532c0.106-0.139,0.526-0.921,0.574-1.141c0.003-0.637-0.118-0.771-0.134-0.786c0.001-0.001-0.013-0.002-0.041-0.002c-0.031,0-0.082,0.003-0.156,0.02c-0.542,0.123-0.995,0.177-1.352,0.158c-0.109,0.269-0.35,0.498-0.625,0.532c-0.178,0.019-0.766,0.025-0.997-0.873C4.395,15.5,4.475,15.057,4.716,14.74c0.011-0.643,0.336-1.27,1.046-1.468c0.424-0.118,0.722-0.265,0.864-0.354c-0.054-0.221-0.446-1.099-3.279-2.452l-1.5-0.615C1.554,9.73,1.369,9.439,1.383,9.124c-0.34-0.223-0.54-0.384-0.637-0.648c-0.048-0.131-0.06-0.278-0.037-0.419C0.466,7.828,0.25,7.556,0.146,7.225c-0.069-0.22-0.031-0.453,0.089-0.637C0.028,6.028-0.082,5.257,0.073,4.197c0.034-0.234,0.174-0.429,0.366-0.54c0.069-0.365,0.203-0.698,0.437-0.931c0.138-0.137,0.32-0.212,0.507-0.218l0.243-0.265C1.85,1.998,2.21,1.929,2.511,2.078C2.81,2.226,2.975,2.553,2.917,2.881C2.911,2.913,2.736,4.003,3.152,4.729c0.117-0.044,0.243-0.058,0.368-0.042c0.231,0.032,0.435,0.17,0.55,0.374c0.002,0.005,0.534,0.899,1.658,1.413c1.609,0.736,3.306,3.161,3.562,3.946c0.122,0.374,0.738,1.355,1.096,1.783c0.312-0.188,0.897-0.755,1.203-2.425c0.026-0.13,0.609-2.851,3.316-3.976c2.163-0.899,3.753-1.608,4.509-2.538c0.208-0.255,0.557-0.344,0.861-0.223c0.183,0.073,0.325,0.213,0.403,0.384c0.195-0.18,0.351-0.367,0.438-0.549c0.16-0.337,0.542-0.504,0.898-0.395c0.275,0.085,0.469,0.315,0.518,0.585c0.209-0.149,0.486-0.187,0.732-0.082c0.319,0.136,0.503,0.473,0.445,0.815c-0.009,0.053-0.048,0.256-0.17,0.554c0.029,0.013,0.058,0.027,0.086,0.043c0.327,0.189,0.461,0.593,0.314,0.941c-0.007,0.018-0.058,0.134-0.157,0.306c0.245,0.262,0.271,0.665,0.054,0.958c-0.062,0.084-0.346,0.457-0.778,0.865c0.058,0.212,0.022,0.446-0.113,0.635c-0.024,0.033-0.429,0.589-1.151,0.984c-0.027,0.114-0.08,0.222-0.16,0.315c-0.021,0.025-0.103,0.117-0.239,0.228c-0.011,0.112-0.045,0.222-0.104,0.318c-0.109,0.183-0.326,0.327-0.579,0.436c-0.04,0.298-0.246,0.55-0.554,0.619c-0.936,0.207-2.064,0.478-2.259,0.553c-0.032,0.017-0.226,0.203-0.407,0.698c-0.289,0.79-1.321,3.416-2.502,4.053l-0.185,0.1c-0.37,0.201-0.611,0.325-0.846,0.398c0.294,0.618,0.732,1.341,1.259,1.708c1.312,0.913,1.942,1.467,1.974,2.147c0.016,0.331-0.121,0.635-0.384,0.858c-0.135,0.114-0.307,0.177-0.484,0.177h-0.035l-0.132,0.183c-0.186,0.257-0.509,0.364-0.804,0.285c-0.067,0.052-0.126,0.092-0.165,0.118c-0.184,0.122-0.408,0.153-0.612,0.098c-0.172,0.078-0.357,0.117-0.52,0.127C14.031,22.503,14.003,22.504,13.976,22.504z M13.135,22.113c0.001,0.002,0.003,0.005,0.005,0.007C13.138,22.118,13.136,22.115,13.135,22.113z M15.06,21.956c-0.006,0.011-0.013,0.022-0.019,0.033C15.047,21.979,15.054,21.967,15.06,21.956z M11.236,21.329c0.013,0.065,0.034,0.124,0.06,0.176C11.27,21.448,11.249,21.389,11.236,21.329z M13.819,21.125c-0.023,0.027-0.045,0.058-0.067,0.095C13.771,21.188,13.793,21.156,13.819,21.125z M13.591,20.857c0.16,0,0.3,0.034,0.42,0.092c0.09-0.063,0.189-0.112,0.282-0.134c0.111-0.027,0.22-0.029,0.322-0.016c0.117-0.104,0.327-0.229,0.629-0.22l0.055-0.077c0.011-0.015,0.022-0.029,0.033-0.042c-0.207-0.171-0.515-0.403-0.969-0.719c-1.41-0.981-2.118-3.137-2.194-3.379c-0.073-0.232-0.028-0.486,0.12-0.679c0.147-0.193,0.391-0.306,0.623-0.295c0.585,0.021,0.584,0.021,1.179-0.302l0.188-0.102c0.425-0.229,1.234-1.686,1.805-3.247c0.352-0.963,0.834-1.369,1.176-1.539c0.064-0.032,0.229-0.114,1.356-0.383c0.02-0.145,0.081-0.282,0.179-0.394c0.146-0.168,0.358-0.261,0.583-0.257c0.026,0.003,0.05,0,0.076-0.001c0.02-0.079,0.052-0.155,0.098-0.226c0.068-0.105,0.161-0.191,0.268-0.25c0.003-0.099,0.026-0.199,0.07-0.292c0.034-0.074,0.08-0.141,0.135-0.199c-0.055-0.143-0.066-0.303-0.026-0.458c0.058-0.223,0.213-0.402,0.415-0.494c-0.062-0.1-0.102-0.216-0.111-0.34c-0.018-0.237,0.077-0.459,0.242-0.61c-0.001-0.005-0.003-0.01-0.005-0.016c-0.222,0.07-0.364,0.099-0.385,0.103c-0.351,0.068-0.701-0.123-0.835-0.449c-0.225,0.012-0.441-0.08-0.592-0.248c-0.874,0.498-1.951,0.962-3.245,1.5c-1.98,0.823-2.415,2.856-2.419,2.876c-0.612,3.345-2.388,3.688-2.738,3.723c-1.167,0.103-2.45-2.871-2.46-2.901c-0.139-0.425-1.591-2.512-2.76-3.047C4.378,7.505,3.832,7.059,3.451,6.669C3.325,6.68,3.194,6.66,3.074,6.604C2.578,6.376,2.223,6.048,1.971,5.676C1.945,5.811,1.883,5.938,1.788,6.042C1.752,6.082,1.713,6.116,1.672,6.146C1.811,6.465,2,6.618,2.116,6.711C2.241,6.812,2.575,7.08,2.488,7.543c0.227,0.192,0.416,0.432,0.384,0.77c0.185,0.145,0.319,0.296,0.372,0.49l0.711,0.292c2.45,1.168,3.78,2.263,4.104,3.364c0.188,0.64-0.024,1.088-0.125,1.251c-0.357,0.576-1.444,0.917-1.769,1.007c0.02-0.007,0.036,0.025,0.045,0.064c0.269-0.003,0.676-0.024,0.95-0.086c0.727-0.165,1.201,0.061,1.47,0.279c0.703,0.569,0.69,1.591,0.685,1.977c0,0.433-0.354,1.167-0.656,1.67c0.242,0.28,0.521,0.604,0.685,0.967c0.034-0.017,0.067-0.032,0.101-0.048c0.049-0.022,0.097-0.043,0.136-0.064c0.03-0.028,0.062-0.055,0.097-0.078c0.032-0.13,0.06-0.193,0.075-0.226c0.088-0.194,0.278-0.361,0.488-0.438c0.549-0.849,1.207-0.558,1.337-0.488c0.515,0.276,0.649,0.977,0.425,1.419c-0.047,0.093-0.128,0.221-0.216,0.349c0.084,0.09,0.148,0.202,0.181,0.33c0.004,0.018,0.011,0.037,0.019,0.057c0.312,0.039,0.496,0.173,0.603,0.335c0.251-0.016,0.501,0.049,0.7,0.159C13.396,20.869,13.497,20.857,13.591,20.857z M9.475,19.6c0,0,0,0.001,0,0.001C9.474,19.601,9.475,19.601,9.475,19.6z M9.476,19.599L9.476,19.599L9.476,19.599z M9.609,19.46L9.609,19.46L9.609,19.46z M8.378,19.044c-0.029,0.037-0.054,0.067-0.075,0.088C8.332,19.104,8.356,19.074,8.378,19.044z" fill="#ffffff" class="color000 svgShape"></path><path d="M7.611,22.682c-0.069,0-0.138-0.01-0.207-0.031c-0.396-0.123-0.63-0.512-0.507-0.907c0.243-0.784,0.834-1.002,1.188-1.133l0.011-0.004c0.015-0.037,0.029-0.089,0.035-0.128c0.058-0.406,0.425-0.703,0.839-0.644c0.407,0.052,0.697,0.417,0.65,0.824c-0.02,0.169-0.155,1.03-0.903,1.317l-0.111,0.042c-0.088,0.033-0.222,0.082-0.25,0.108C8.254,22.453,7.94,22.682,7.611,22.682z" fill="#ffffff" class="color000 svgShape"></path><path d="M9.519 23c-.303 0-.588-.185-.702-.485-.116-.307-.237-.378-.39-.47-.161-.095-.65-.386-.556-.998.064-.41.443-.688.856-.626.24.037.436.185.544.383.292.184.69.496.949 1.182.146.387-.049.82-.437.966C9.697 22.984 9.607 23 9.519 23zM9.354 21.275c0 0 0 .001 0 .001C9.354 21.276 9.354 21.275 9.354 21.275zM7.508 20.36c-.272 0-.535-.091-.682-.142-.347-.121-.742-.257-1.123-.133-.396.126-.818-.088-.945-.481-.128-.394.087-.817.481-.945.695-.225 1.322-.097 1.779.043.002-.041.004-.082.005-.12.011-.414.355-.729.769-.731.414.01.741.354.731.767-.005.188-.035.836-.234 1.254C8.109 20.253 7.803 20.36 7.508 20.36z" fill="#ffffff" class="color000 svgShape"></path><path d="M6.62,21.531c-0.188,0-0.375-0.07-0.521-0.21c-0.298-0.288-0.307-0.763-0.02-1.061c0.065-0.067,0.101-0.132,0.099-0.177c-0.009-0.027-0.003-0.035,0.014-0.035c-0.379-0.052-0.664-0.385-0.647-0.775c0.018-0.414,0.374-0.73,0.781-0.718c0.525,0.022,1.022,0.4,1.239,0.94c0.245,0.613,0.094,1.288-0.405,1.806C7.012,21.455,6.816,21.531,6.62,21.531z M6.262,20.055C6.262,20.055,6.262,20.055,6.262,20.055C6.262,20.055,6.262,20.055,6.262,20.055z" fill="#ffffff" class="color000 svgShape"></path></svg></g></svg>